:SAMPLES-PER-SECOND 30
:FULLY-SPECIFIED
:DEGREES
749
root  12.8427 40.7752 8.38776 75.5242 87.6268 75.3024
RightUpLeg  -5.44176 -11.5061 -9.61232
RightLeg  8.02015 -8.01938 2.63183
RightFoot  1.31436 -0.0157681 0.204464
RightToes  0.000481921 0.542163 -0.142578
Spine  12.4082 -0.327149 4.28221
Spine1  -5.0125 0.606242 -3.98891
HEad  20.706 2.85217 -0.280656
LeftShoulder1  5.9576 -16.9849 -22.756
LeftArm  -5.57459 -65.299 -39.7534
LeftForeArm  26.1865 -10.6588 -6.57793
LeftHand  -0.25398 0.0180481 5.50724
RightShoulder  2.70711 9.65117 13.6835
RightArm  -8.58347 75.6174 58.3131
RightForeArm  32.437 -5.76408 0.703105
RightHand  -1.71358 9.09661 -14.1461
LeftUpLeg  -1.06795 5.90753 4.00399
LeftLeg  0.153858 18.1447 -4.78425
LeftFoot  3.04202 0.258628 -2.19584
LeftToes  1.06247e-005 4.65869e-005 -8.65511e-006
750
root  13.0262 40.807 8.39105 61.2567 87.5872 59.394
RightUpLeg  -6.53886 -10.9788 -9.1976
RightLeg  6.9776 -8.20468 3.04988
RightFoot  1.59863 -0.0300481 0.352895
RightToes  0.000481921 0.542163 -0.142578
Spine  11.5615 -0.0352158 2.79443
Spine1  -6.56097 0.295353 -0.995436
HEad  20.5401 4.73109 -1.27604
LeftShoulder1  5.81855 -15.3879 -24.5803
LeftArm  0.0190481 -59.0228 -37.842
LeftForeArm  21.2095 -27.5834 -4.81874
LeftHand  -0.25398 0.0180481 5.50724
RightShoulder  3.21318 9.57581 17.9784
RightArm  -5.5072 71.5793 52.4211
RightForeArm  26.2303 10.5718 4.20638
RightHand  -1.82542 9.54256 -14.6085
LeftUpLeg  -2.02868 5.86698 4.11739
LeftLeg  -0.754837 18.8257 -5.07248
LeftFoot  3.12769 0.292887 -2.45762
LeftToes  1.06247e-005 4.65869e-005 -8.65511e-006
751
root  13.3115 40.8262 8.3705 54.7187 87.8351 52.0501
RightUpLeg  -6.26719 -10.5297 -8.90548
RightLeg  5.64799 -8.5914 3.47975
RightFoot  1.67716 -0.0389185 0.441869
RightToes  0.000481921 0.542163 -0.142578
Spine  10.0478 0.0290268 1.69762
Spine1  -5.82078 -0.0485126 1.2721
HEad  19.0926 5.75401 -1.31403
LeftShoulder1  6.65334 -14.9927 -29.8737
LeftArm  -9.28376 -44.9279 -33.4096
LeftForeArm  40.2304 -58.4305 -16.8892
LeftHand  -0.25398 0.0180481 5.50724
RightShoulder  4.37462 10.2316 25.7373
RightArm  -0.135243 57.9193 43.7118
RightForeArm  21.3663 48.1776 12.7644
RightHand  -1.61654 7.56046 -14.7915
LeftUpLeg  -2.39891 5.9225 4.38208
LeftLeg  -0.801415 18.8696 -4.97269
LeftFoot  2.75701 0.299336 -2.55583
LeftToes  1.06247e-005 4.65869e-005 -8.65511e-006
752
root  13.5461 40.8209 8.34839 53.5488 88.0878 51.1165
RightUpLeg  -5.30948 -10.4265 -8.82702
RightLeg  5.12562 -8.68861 3.5298
RightFoot  1.45366 -0.0393015 0.43609
RightToes  0.000481921 0.542163 -0.142578
Spine  9.77257 0.138351 1.5137
Spine1  -4.0545 -0.0344811 1.75576
HEad  15.735 5.23019 -0.810554
LeftShoulder1  7.62065 -15.2255 -34.6277
LeftArm  -12.251 -29.3366 -30.188
LeftForeArm  96.4417 -80.5025 -74.3113
LeftHand  -0.25398 0.0180481 5.50724
RightShoulder  5.33206 10.7883 31.386
RightArm  -6.91484 40.058 35.393
RightForeArm  69.1933 78.4258 64.8324
RightHand  -0.647831 1.37382 -10.9885
LeftUpLeg  -2.20534 6.0753 4.59687
LeftLeg  0.110569 18.5442 -4.6261
LeftFoot  2.09146 0.282357 -2.50552
LeftToes  1.06247e-005 4.65869e-005 -8.65511e-006
753
root  13.7686 40.8087 8.33935 51.4716 87.9836 49.0734
RightUpLeg  -5.154 -10.3443 -8.83365
RightLeg  5.53025 -8.60376 3.27647
RightFoot  1.04373 -0.0392642 0.424323
RightToes  0.000481921 0.542163 -0.142578
Spine  10.7592 0.331288 1.89403
Spine1  -3.31841 0.298631 1.1004
HEad  11.0699 4.39331 -0.489416
LeftShoulder1  8.06257 -14.5899 -38.4111
LeftArm  -13.7909 -11.7767 -27.2139
LeftForeArm  171.085 -69.1458 -155.625
LeftHand  -0.25398 0.0180481 5.50724
RightShoulder  5.54706 10.1328 34.7438
RightArm  -9.66772 18.8963 32.0695
RightForeArm  161.829 64.6392 160.208
RightHand  -0.083667 -4.16257 -5.17927
LeftUpLeg  -2.1494 6.17061 4.60725
LeftLeg  0.871894 18.5468 -4.45437
LeftFoot  1.53756 0.270381 -2.47875
LeftToes  1.06247e-005 4.65869e-005 -8.65511e-006
754
root  14.0776 40.8033 8.32735 45.3953 87.5771 42.2277
RightUpLeg  -5.88851 -10.2697 -8.80125
RightLeg  6.06244 -8.32745 3.06909
RightFoot  0.607659 -0.0455908 0.476079
RightToes  0.000481921 0.542163 -0.142578
Spine  11.1702 0.300245 1.90489
Spine1  -3.54847 0.331259 0.745184
HEad  7.3714 4.70907 -0.509586
LeftShoulder1  7.90719 -12.8051 -42.1127
LeftArm  -15.1011 9.27985 -23.0588
LeftForeArm  173.382 -54.2667 -166.724
LeftHand  -0.25398 0.0180481 5.50724
RightShoulder  5.04966 8.32778 36.6757
RightArm  -9.31677 -4.59991 32.0185
RightForeArm  170.362 47.853 169.314
RightHand  -0.0234613 -5.63558 0.503894
LeftUpLeg  -2.41935 6.19939 4.50122
LeftLeg  0.890052 18.9804 -4.59098
LeftFoot  1.15294 0.271133 -2.54166
LeftToes  1.06247e-005 4.65869e-005 -8.65511e-006
